<svg id="Camada_1" data-name="Camada 1" xmlns="http://www.w3.org/2000/svg" xmlns:xlink="http://www.w3.org/1999/xlink" viewBox="0 0 1510.72 501.16"><defs><style>.cls-1{fill:#2c497f;}.cls-2{fill:url(#Gradiente_sem_nome_74);}.cls-3{fill:url(#Gradiente_sem_nome_48);}.cls-4{fill:url(#Gradiente_sem_nome_46);}.cls-5{fill:url(#Gradiente_sem_nome_46-2);}.cls-6{fill:url(#Gradiente_sem_nome_46-3);}.cls-7{fill:url(#Gradiente_sem_nome_46-4);}.cls-8{fill:url(#Gradiente_sem_nome_46-5);}.cls-9{fill:url(#Gradiente_sem_nome_46-6);}.cls-10{fill:url(#Gradiente_sem_nome_46-7);}.cls-11{fill:#fff;}</style><linearGradient id="Gradiente_sem_nome_74" x1="403.71" y1="290.31" x2="662.78" y2="31.25" gradientUnits="userSpaceOnUse"><stop offset="0" stop-color="#fff"/><stop offset="0.12" stop-color="#f9fcfd"/><stop offset="0.28" stop-color="#e9f2f9"/><stop offset="0.46" stop-color="#cee2f2"/><stop offset="0.65" stop-color="#a8cbe8"/><stop offset="0.86" stop-color="#79afdb"/><stop offset="1" stop-color="#5398d1"/></linearGradient><linearGradient id="Gradiente_sem_nome_48" y1="320.99" x2="517.32" y2="320.99" gradientUnits="userSpaceOnUse"><stop offset="0" stop-color="#71bad1"/><stop offset="1" stop-color="#5195d1"/></linearGradient><linearGradient id="Gradiente_sem_nome_46" x1="789.02" y1="186.24" x2="888.96" y2="186.24" gradientUnits="userSpaceOnUse"><stop offset="0" stop-color="#71bad1"/><stop offset="1" stop-color="#659fd1"/></linearGradient><linearGradient id="Gradiente_sem_nome_46-2" x1="889.97" y1="186.24" x2="998.87" y2="186.24" xlink:href="#Gradiente_sem_nome_46"/><linearGradient id="Gradiente_sem_nome_46-3" x1="994.64" y1="186.24" x2="1122.14" y2="186.24" xlink:href="#Gradiente_sem_nome_46"/><linearGradient id="Gradiente_sem_nome_46-4" x1="1111.48" y1="187.26" x2="1197.22" y2="187.26" xlink:href="#Gradiente_sem_nome_46"/><linearGradient id="Gradiente_sem_nome_46-5" x1="1203.81" y1="186.24" x2="1299.86" y2="186.24" xlink:href="#Gradiente_sem_nome_46"/><linearGradient id="Gradiente_sem_nome_46-6" x1="1298.84" y1="186.24" x2="1412.31" y2="186.24" xlink:href="#Gradiente_sem_nome_46"/><linearGradient id="Gradiente_sem_nome_46-7" x1="1406.89" y1="186.24" x2="1510.72" y2="186.24" xlink:href="#Gradiente_sem_nome_46"/></defs><path class="cls-1" d="M688.55,261.62a215,215,0,0,0,0-96.46l-32.17-4.28A181.79,181.79,0,0,0,642,126.28l19.73-25.78a214.45,214.45,0,0,0-68.21-68.21L567.75,52a182.06,182.06,0,0,0-34.6-14.37L528.87,5.47a215.36,215.36,0,0,0-96.46,0l-4.27,32.18A182.16,182.16,0,0,0,393.53,52L367.76,32.29a214.58,214.58,0,0,0-68.22,68.21l19.73,25.78A182.86,182.86,0,0,0,305,160.52h81.91a107.59,107.59,0,0,1,169.8-23.22h0a107.6,107.6,0,0,1-36.84,176.28L477.6,426.73c1,0,2,0,3,0a214.08,214.08,0,0,0,48.23-5.47l4.28-32.18a182.06,182.06,0,0,0,34.6-14.37l25.78,19.73a214.45,214.45,0,0,0,68.21-68.21L642,300.49a181.79,181.79,0,0,0,14.37-34.6Z"/><path class="cls-2" d="M688.55,261.62a215,215,0,0,0,0-96.46l-32.17-4.28A181.79,181.79,0,0,0,642,126.28l19.73-25.78a214.45,214.45,0,0,0-68.21-68.21L567.75,52a182.06,182.06,0,0,0-34.6-14.37L528.87,5.47a215.36,215.36,0,0,0-96.46,0l-4.27,32.18A182.16,182.16,0,0,0,393.53,52L367.76,32.29a214.58,214.58,0,0,0-68.22,68.21l19.73,25.78A182.86,182.86,0,0,0,305,160.52h81.91a107.59,107.59,0,0,1,169.8-23.22h0a107.6,107.6,0,0,1-36.84,176.28L477.6,426.73c1,0,2,0,3,0a214.08,214.08,0,0,0,48.23-5.47l4.28-32.18a182.06,182.06,0,0,0,34.6-14.37l25.78,19.73a214.45,214.45,0,0,0,68.21-68.21L642,300.49a181.79,181.79,0,0,0,14.37-34.6Z"/><path class="cls-3" d="M511.32,266.54a33.62,33.62,0,0,0-27.63-14.46H443.78V213.61a44.12,44.12,0,0,0-44.07-44.06h-160a13.3,13.3,0,0,1-4.06-.63l-81.78-26a43.87,43.87,0,0,0-13.36-2.08H44.07A44.12,44.12,0,0,0,0,184.89V457.1a43.92,43.92,0,0,0,13.33,31.54l.56.63.86.7a43.89,43.89,0,0,0,29.32,11.19h395L515.2,297.48A33.63,33.63,0,0,0,511.32,266.54ZM23.46,184.89a20.63,20.63,0,0,1,20.61-20.6h96.42a20.34,20.34,0,0,1,6.24,1l81.79,26A36.76,36.76,0,0,0,239.69,193h160a20.63,20.63,0,0,1,20.61,20.6v38.47H109.65a33.78,33.78,0,0,0-31.51,21.86L23.46,420.26ZM493.22,289.27,422.8,477.7H44.07a20.53,20.53,0,0,1-14.71-6.19l70.76-189.36a10.23,10.23,0,0,1,9.53-6.61h374a10.17,10.17,0,0,1,9.53,13.73Z"/><path class="cls-4" d="M789,127.06h50.73c29.93,0,49.21,15.39,49.21,41.6V169c0,27.91-21.47,42.62-50.9,42.62H821.83v33.82H789Zm48.37,58.84c11.67,0,18.77-6.08,18.77-15.38v-.34c0-10.15-7.1-15.56-18.94-15.56H821.83V185.9Z"/><path class="cls-5" d="M890,127.06h56c18.1,0,30.61,4.73,38.56,12.85,6.93,6.76,10.48,15.9,10.48,27.56v.34c0,18.09-9.64,30.1-24.35,36.36l28.24,41.26H961l-23.84-35.85H922.78v35.85H890Zm54.45,56.82c11.16,0,17.59-5.42,17.59-14v-.34c0-9.3-6.77-14-17.76-14H922.78v28.41Z"/><path class="cls-6" d="M994.64,186.58v-.34c0-34,27.39-61.55,63.92-61.55s63.58,27.23,63.58,61.21v.34c0,34-27.39,61.55-63.92,61.55S994.64,220.57,994.64,186.58Zm94,0v-.34c0-17.08-12.34-32-30.44-32-17.92,0-29.93,14.55-29.93,31.62v.34c0,17.08,12.35,32,30.27,32C1076.65,218.2,1088.66,203.66,1088.66,186.58Z"/><path class="cls-7" d="M1111.48,227.5l21.14-19.95c5.75,6.93,11.16,11,18.43,11,8.29,0,13.53-5.58,13.53-16.57V127.06h32.64v75.08c0,14.88-3.72,25.36-11.67,33.31-7.78,7.78-18.94,12-32.47,12C1132.45,247.46,1119.77,238.83,1111.48,227.5Z"/><path class="cls-8" d="M1203.81,127.06H1299V155h-62.74v17.92h56.82v25.88h-56.82v18.77h63.59v27.9h-96Z"/><path class="cls-9" d="M1298.84,186.58v-.34c0-34.49,26.55-61.55,62.4-61.55,24.18,0,39.74,10.15,50.22,24.69l-24.69,19.11c-6.76-8.46-14.54-13.87-25.87-13.87-16.57,0-28.24,14-28.24,31.28v.34c0,17.76,11.67,31.62,28.24,31.62,12.34,0,19.62-5.75,26.72-14.37l24.69,17.59c-11.16,15.38-26.22,26.71-52.43,26.71C1326.07,247.79,1298.84,221.92,1298.84,186.58Z"/><path class="cls-10" d="M1442.4,155.81h-35.51V127.06h103.83v28.75h-35.51v89.62H1442.4Z"/><path class="cls-11" d="M789.53,285.14H917.39v91.33H899.12V303.41H862.59v73.06H844.33V303.41H807.8v73.06H789.53Z"/><path class="cls-11" d="M924.55,285.14h91.32v91.33H997.61V339.94h-54.8v36.53H924.55Zm73.06,36.54V303.41h-54.8v18.27Z"/><path class="cls-11" d="M1023,285.14h91.33v91.33h-18.27V303.41H1041.3v73.06H1023Z"/><path class="cls-11" d="M1121.52,285.14h91.32v91.33h-18.26V339.94h-54.8v36.53h-18.26Zm73.06,36.54V303.41h-54.8v18.27Z"/><path class="cls-11" d="M1238.27,358.21h54.79V339.94h-36.53V321.68h54.8v54.79H1220V285.14h91.33v18.27h-73.06Z"/><path class="cls-11" d="M1409.82,303.41h-73.06v18.27h54.79v18.26h-54.79v18.27h73.06v18.26h-91.33V285.14h91.33Z"/><path class="cls-11" d="M1508.3,376.47H1490V339.94h-54.8v36.53H1417V285.14h91.33v36.54H1490v18.26h18.26Zm-19-54.79V303.41h-54.07v18.27Z"/><rect class="cls-11" x="789.38" y="261.6" width="719.84" height="6.96"/></svg>