<svg id="Camada_1" data-name="Camada 1" xmlns="http://www.w3.org/2000/svg" xmlns:xlink="http://www.w3.org/1999/xlink" viewBox="0 0 799.75 577.5"><defs><style>.cls-1{fill:#2c497f;}.cls-2{fill:url(#Gradiente_sem_nome_74);}.cls-3{fill:url(#Gradiente_sem_nome_48);}</style><linearGradient id="Gradiente_sem_nome_74" x1="465.21" y1="334.54" x2="763.74" y2="36.01" gradientUnits="userSpaceOnUse"><stop offset="0" stop-color="#fff"/><stop offset="0.12" stop-color="#f9fcfd"/><stop offset="0.28" stop-color="#e9f2f9"/><stop offset="0.46" stop-color="#cee2f2"/><stop offset="0.65" stop-color="#a8cbe8"/><stop offset="0.86" stop-color="#79afdb"/><stop offset="1" stop-color="#5398d1"/></linearGradient><linearGradient id="Gradiente_sem_nome_48" y1="369.89" x2="596.13" y2="369.89" gradientUnits="userSpaceOnUse"><stop offset="0" stop-color="#71bad1"/><stop offset="1" stop-color="#5195d1"/></linearGradient></defs><path class="cls-1" d="M793.44,301.47a247.94,247.94,0,0,0,0-111.16l-37.07-4.92a210.28,210.28,0,0,0-16.56-39.88l22.73-29.7a247.08,247.08,0,0,0-78.6-78.6l-29.7,22.73a210.28,210.28,0,0,0-39.88-16.56L609.44,6.31a247.94,247.94,0,0,0-111.16,0l-4.92,37.07a210.28,210.28,0,0,0-39.88,16.56l-29.7-22.73a247.11,247.11,0,0,0-78.61,78.6l22.74,29.7A210.2,210.2,0,0,0,351.48,185h94.39a124,124,0,0,1,195.66-26.77h0a124,124,0,0,1-42.46,203.13L550.36,491.73c1.16,0,2.33,0,3.5,0a247.06,247.06,0,0,0,55.58-6.3l4.92-37.08a209.63,209.63,0,0,0,39.88-16.56l29.7,22.74A247.11,247.11,0,0,0,762.54,376l-22.73-29.7a210.28,210.28,0,0,0,16.56-39.88Z"/><path class="cls-2" d="M793.44,301.47a247.94,247.94,0,0,0,0-111.16l-37.07-4.92a210.28,210.28,0,0,0-16.56-39.88l22.73-29.7a247.08,247.08,0,0,0-78.6-78.6l-29.7,22.73a210.28,210.28,0,0,0-39.88-16.56L609.44,6.31a247.94,247.94,0,0,0-111.16,0l-4.92,37.07a210.28,210.28,0,0,0-39.88,16.56l-29.7-22.73a247.11,247.11,0,0,0-78.61,78.6l22.74,29.7A210.2,210.2,0,0,0,351.48,185h94.39a124,124,0,0,1,195.66-26.77h0a124,124,0,0,1-42.46,203.13L550.36,491.73c1.16,0,2.33,0,3.5,0a247.06,247.06,0,0,0,55.58-6.3l4.92-37.08a209.63,209.63,0,0,0,39.88-16.56l29.7,22.74A247.11,247.11,0,0,0,762.54,376l-22.73-29.7a210.28,210.28,0,0,0,16.56-39.88Z"/><path class="cls-3" d="M589.21,307.14a38.74,38.74,0,0,0-31.84-16.67h-46V246.15a50.84,50.84,0,0,0-50.78-50.78H276.2a15.5,15.5,0,0,1-4.68-.72l-94.23-30a51,51,0,0,0-15.4-2.39H50.78A50.84,50.84,0,0,0,0,213.05V526.72a50.6,50.6,0,0,0,15.36,36.35l.64.73,1,.81A50.6,50.6,0,0,0,50.78,577.5H506l87.71-234.7A38.78,38.78,0,0,0,589.21,307.14ZM27,213.05a23.77,23.77,0,0,1,23.74-23.74H161.89a23.75,23.75,0,0,1,7.2,1.12l94.24,30a42.3,42.3,0,0,0,12.87,2H460.6a23.77,23.77,0,0,1,23.74,23.74v44.32h-358a38.94,38.94,0,0,0-36.3,25.19L27,484.28ZM568.35,333.33,487.21,550.47H50.78a23.7,23.7,0,0,1-17-7.13l81.54-218.21a11.78,11.78,0,0,1,11-7.62h431a11.72,11.72,0,0,1,11,15.82Z"/></svg>