<svg id="Camada_1" data-name="Camada 1" xmlns="http://www.w3.org/2000/svg" viewBox="0 0 2369.93 826.81"><defs><style>.cls-1{fill:#fff;}.cls-2{fill:#5196d0;}</style></defs><path class="cls-1" d="M0,7.78H166.59c98.29,0,161.59,50.53,161.59,136.6v1.11c0,91.62-70.52,139.93-167.14,139.93H107.73V396.48H0ZM158.81,201c38.32,0,61.64-20,61.64-50.53v-1.11c0-33.32-23.32-51.09-62.19-51.09H107.73V201Z"/><path class="cls-1" d="M331.5,7.78H515.3c59.42,0,100.51,15.55,126.61,42.2,22.77,22.21,34.43,52.2,34.43,90.51v1.11c0,59.42-31.66,98.85-80,119.39l92.74,135.49H564.72l-78.3-117.72h-47.2V396.48H331.5ZM510.3,194.36c36.65,0,57.75-17.77,57.75-46.09v-1.11c0-30.54-22.21-46.09-58.3-46.09H439.22v93.29Z"/><path class="cls-1" d="M675.21,203.24v-1.11C675.21,90.52,765.17,0,885.12,0s208.79,89.4,208.79,201v1.11c0,111.62-90,202.13-209.9,202.13S675.21,314.86,675.21,203.24Zm308.75,0v-1.11C984,146,943.42,97.18,884,97.18c-58.87,0-98.29,47.75-98.29,103.84v1.11c0,56.09,40.53,105,99.4,105C944.53,307.08,984,259.33,984,203.24Z"/><path class="cls-1" d="M1058.91,337.62l69.41-65.52c18.88,22.77,36.65,36.09,60.53,36.09,27.21,0,44.42-18.32,44.42-54.42V7.78h107.17V254.33c0,48.86-12.21,83.29-38.31,109.39-25.55,25.55-62.19,39.43-106.62,39.43C1127.76,403.15,1086.12,374.83,1058.91,337.62Z"/><path class="cls-1" d="M1362.09,7.78h312.63V99.4h-206v58.86h186.57v85H1468.71v61.64H1677.5v91.62H1362.09Z"/><path class="cls-1" d="M1674.16,203.24v-1.11C1674.16,88.85,1761.34,0,1879.07,0c79.4,0,130.49,33.32,164.92,81.08l-81.07,62.74c-22.22-27.76-47.76-45.53-85-45.53-54.41,0-92.73,46.09-92.73,102.73v1.11c0,58.3,38.32,103.84,92.73,103.84,40.54,0,64.42-18.88,87.74-47.2l81.08,57.75c-36.65,50.53-86.08,87.74-172.15,87.74C1763.56,404.26,1674.16,319.3,1674.16,203.24Z"/><path class="cls-1" d="M2145.59,102.18H2029V7.78h340.95v94.4H2253.32v294.3H2145.59Z"/><path class="cls-2" d="M1.66,526.91H421.52v299.9h-60V586.89h-120V826.81h-60V586.89h-120V826.81h-60Z"/><path class="cls-2" d="M445,526.91H744.94v299.9H685v-120H505v120H445ZM685,646.87v-60H505v60Z"/><path class="cls-2" d="M768.45,526.91h299.9v299.9h-60V586.89H828.43V826.81h-60Z"/><path class="cls-2" d="M1091.86,526.91h299.9v299.9h-60v-120H1151.84v120h-60Zm239.92,120v-60H1151.84v60Z"/><path class="cls-2" d="M1475.26,766.83H1655.2v-60h-120v-60h179.94V826.81H1415.27V526.91h299.91v60H1475.26Z"/><path class="cls-2" d="M2038.59,586.89H1798.67v60h179.94v60H1798.67v60h239.92v60h-299.9V526.91h299.9Z"/><path class="cls-2" d="M2362,826.81h-60v-120H2122.08v120h-60V526.91H2362v120h-60v60h60Zm-62.38-179.94v-60H2122.08v60Z"/><rect class="cls-2" x="1.18" y="449.59" width="2363.87" height="22.84"/></svg>