<svg id="Camada_1" data-name="Camada 1" xmlns="http://www.w3.org/2000/svg" xmlns:xlink="http://www.w3.org/1999/xlink" viewBox="0 0 2369.59 826.69"><defs><style>.cls-1{fill:url(#Gradiente_sem_nome_13);}.cls-2{fill:url(#Gradiente_sem_nome_13-2);}.cls-3{fill:url(#Gradiente_sem_nome_13-3);}.cls-4{fill:url(#Gradiente_sem_nome_13-4);}.cls-5{fill:url(#Gradiente_sem_nome_13-5);}.cls-6{fill:url(#Gradiente_sem_nome_13-6);}.cls-7{fill:url(#Gradiente_sem_nome_13-7);}.cls-8{fill:#5196d0;}</style><linearGradient id="Gradiente_sem_nome_13" y1="202.1" x2="328.13" y2="202.1" gradientUnits="userSpaceOnUse"><stop offset="0" stop-color="#2c497f"/><stop offset="0.26" stop-color="#2a4679"/><stop offset="0.59" stop-color="#243c69"/><stop offset="0.97" stop-color="#1b2d4e"/><stop offset="1" stop-color="#1a2c4c"/></linearGradient><linearGradient id="Gradiente_sem_nome_13-2" x1="331.45" y1="202.1" x2="689.01" y2="202.1" xlink:href="#Gradiente_sem_nome_13"/><linearGradient id="Gradiente_sem_nome_13-3" x1="675.12" y1="202.1" x2="1093.75" y2="202.1" xlink:href="#Gradiente_sem_nome_13"/><linearGradient id="Gradiente_sem_nome_13-4" x1="1058.76" y1="205.43" x2="1340.25" y2="205.43" xlink:href="#Gradiente_sem_nome_13"/><linearGradient id="Gradiente_sem_nome_13-5" x1="1361.89" y1="202.1" x2="1677.26" y2="202.1" xlink:href="#Gradiente_sem_nome_13"/><linearGradient id="Gradiente_sem_nome_13-6" x1="1673.92" y1="202.1" x2="2046.47" y2="202.1" xlink:href="#Gradiente_sem_nome_13"/><linearGradient id="Gradiente_sem_nome_13-7" x1="2028.69" y1="202.1" x2="2369.59" y2="202.1" xlink:href="#Gradiente_sem_nome_13"/></defs><path class="cls-1" d="M0,7.78H166.57c98.27,0,161.56,50.52,161.56,136.58v1.11c0,91.61-70.51,139.91-167.12,139.91h-53.3V396.43H0ZM158.79,201c38.31,0,61.63-20,61.63-50.52v-1.11c0-33.32-23.32-51.09-62.18-51.09H107.71V201Z"/><path class="cls-2" d="M331.45,7.78H515.23c59.4,0,100.49,15.54,126.59,42.19,22.76,22.21,34.42,52.19,34.42,90.5v1.11c0,59.41-31.65,98.83-80,119.37L689,396.43H564.64L486.35,278.72H439.16V396.43H331.45ZM510.23,194.33c36.64,0,57.74-17.77,57.74-46.08v-1.12c0-30.53-22.21-46.08-58.3-46.08H439.16v93.28Z"/><path class="cls-3" d="M675.12,203.21V202.1C675.12,90.5,765.06,0,885,0s208.76,89.39,208.76,201v1.11c0,111.6-90,202.1-209.87,202.1S675.12,314.81,675.12,203.21Zm308.7,0V202.1c0-56.08-40.53-104.94-99.94-104.94-58.85,0-98.27,47.75-98.27,103.83v1.11C785.61,258.18,826.14,307,885,307,944.4,307,983.82,259.29,983.82,203.21Z"/><path class="cls-4" d="M1058.76,337.57l69.4-65.51c18.87,22.76,36.64,36.09,60.52,36.09,27.2,0,44.41-18.32,44.41-54.41V7.78h107.16V254.29c0,48.86-12.21,83.28-38.31,109.38-25.54,25.54-62.18,39.42-106.6,39.42C1127.6,403.09,1086,374.77,1058.76,337.57Z"/><path class="cls-5" d="M1361.89,7.78h312.59V99.39h-206v58.85h186.55v84.95H1468.5v61.63h208.76v91.61H1361.89Z"/><path class="cls-6" d="M1673.92,203.21V202.1C1673.92,88.84,1761.09,0,1878.8,0c79.39,0,130.47,33.32,164.9,81.06l-81.06,62.74c-22.21-27.76-47.75-45.53-85-45.53-54.41,0-92.72,46.09-92.72,102.72v1.11c0,58.3,38.31,103.83,92.72,103.83,40.53,0,64.4-18.88,87.72-47.2l81.06,57.75c-36.64,50.52-86.06,87.72-172.12,87.72C1763.31,404.2,1673.92,319.25,1673.92,203.21Z"/><path class="cls-7" d="M2145.29,102.16h-116.6V7.78h340.9v94.38H2253V396.43H2145.29Z"/><path class="cls-8" d="M1.66,526.83h419.8V826.69h-60V586.81H241.55V826.69h-60V586.81h-120V826.69h-60Z"/><path class="cls-8" d="M445,526.83H744.83V826.69h-60V706.75H504.94V826.69H445ZM684.86,646.78v-60H504.94v60Z"/><path class="cls-8" d="M768.34,526.83h299.85V826.69h-60V586.81H828.31V826.69h-60Z"/><path class="cls-8" d="M1091.71,526.83h299.85V826.69h-60V706.75H1151.68V826.69h-60Zm239.88,119.95v-60H1151.68v60Z"/><path class="cls-8" d="M1475.05,766.72H1655v-60H1535v-60h179.91V826.69H1415.07V526.83h299.86v60H1475.05Z"/><path class="cls-8" d="M2038.3,586.81H1798.41v60h179.92v60H1798.41v60H2038.3v60H1738.44V526.83H2038.3Z"/><path class="cls-8" d="M2361.66,826.69h-60V706.75H2121.78V826.69h-60V526.83h299.86V646.78h-60v60h60Zm-62.37-179.91v-60H2121.78v60Z"/><rect class="cls-8" x="1.18" y="449.53" width="2363.53" height="22.84"/></svg>