<svg id="Camada_1" data-name="Camada 1" xmlns="http://www.w3.org/2000/svg" xmlns:xlink="http://www.w3.org/1999/xlink" viewBox="0 0 798.92 576.9"><defs><style>.cls-1{fill:#2c497f;}.cls-2{fill:url(#Gradiente_sem_nome_13);}.cls-3{fill:url(#Gradiente_sem_nome_48);}</style><linearGradient id="Gradiente_sem_nome_13" x1="464.73" y1="334.19" x2="762.95" y2="35.97" gradientUnits="userSpaceOnUse"><stop offset="0" stop-color="#2c497f"/><stop offset="0.26" stop-color="#2a4679"/><stop offset="0.59" stop-color="#243c69"/><stop offset="0.97" stop-color="#1b2d4e"/><stop offset="1" stop-color="#1a2c4c"/></linearGradient><linearGradient id="Gradiente_sem_nome_48" y1="369.5" x2="595.51" y2="369.5" gradientUnits="userSpaceOnUse"><stop offset="0" stop-color="#71bad1"/><stop offset="1" stop-color="#5195d1"/></linearGradient></defs><path class="cls-1" d="M792.62,301.16a247.79,247.79,0,0,0,0-111l-37-4.92A210.12,210.12,0,0,0,739,145.36l22.71-29.67a246.88,246.88,0,0,0-78.52-78.52L653.56,59.88a210.12,210.12,0,0,0-39.84-16.54l-4.92-37a247.79,247.79,0,0,0-111,0l-4.92,37A210,210,0,0,0,453,59.88L423.34,37.17a246.88,246.88,0,0,0-78.52,78.52l22.71,29.67a209.7,209.7,0,0,0-16.42,39.42h94.3a123.85,123.85,0,0,1,195.46-26.73h0A123.87,123.87,0,0,1,598.46,361L549.78,491.22c1.17,0,2.33,0,3.5,0A246.46,246.46,0,0,0,608.8,485l4.92-37a210.12,210.12,0,0,0,39.84-16.54l29.67,22.71a246.88,246.88,0,0,0,78.52-78.52L739,345.91a210,210,0,0,0,16.54-39.83Z"/><path class="cls-2" d="M792.62,301.16a247.79,247.79,0,0,0,0-111l-37-4.92A210.12,210.12,0,0,0,739,145.36l22.71-29.67a246.88,246.88,0,0,0-78.52-78.52L653.56,59.88a210.12,210.12,0,0,0-39.84-16.54l-4.92-37a247.79,247.79,0,0,0-111,0l-4.92,37A210,210,0,0,0,453,59.88L423.34,37.17a246.88,246.88,0,0,0-78.52,78.52l22.71,29.67a209.7,209.7,0,0,0-16.42,39.42h94.3a123.85,123.85,0,0,1,195.46-26.73h0A123.87,123.87,0,0,1,598.46,361L549.78,491.22c1.17,0,2.33,0,3.5,0A246.46,246.46,0,0,0,608.8,485l4.92-37a210.12,210.12,0,0,0,39.84-16.54l29.67,22.71a246.88,246.88,0,0,0,78.52-78.52L739,345.91a210,210,0,0,0,16.54-39.83Z"/><path class="cls-3" d="M588.6,306.82a38.73,38.73,0,0,0-31.8-16.65H510.85V245.9a50.79,50.79,0,0,0-50.73-50.73H275.91a15.39,15.39,0,0,1-4.67-.72l-94.14-30a50.77,50.77,0,0,0-15.38-2.38h-111A50.78,50.78,0,0,0,0,212.83V526.18a50.57,50.57,0,0,0,15.34,36.31l.65.73,1,.8A50.52,50.52,0,0,0,50.73,576.9H505.44l87.62-234.46A38.73,38.73,0,0,0,588.6,306.82ZM27,212.83a23.75,23.75,0,0,1,23.72-23.72h111a23.73,23.73,0,0,1,7.19,1.12l94.14,30a42.53,42.53,0,0,0,12.86,2H460.12a23.75,23.75,0,0,1,23.72,23.72v44.27H126.22A38.9,38.9,0,0,0,90,315.34L27,483.78ZM567.76,333,486.7,549.89h-436a23.72,23.72,0,0,1-16.94-7.11l81.46-218a11.77,11.77,0,0,1,11-7.61H556.8a11.72,11.72,0,0,1,11,15.81Z"/></svg>