<svg id="Layer_1" data-name="Layer 1" xmlns="http://www.w3.org/2000/svg" viewBox="0 0 93.41 83.6"><defs><style>.cls-1{fill:#fff;}.cls-2{fill:#5e1dbb;}.cls-3{fill:#151354;}.cls-4{fill:#352f75;}.cls-5{fill:#ffb700;}.cls-6{fill:#9364ed;}</style></defs><path class="cls-1" d="M90.82,79.84H57.16a2.59,2.59,0,0,1-2.59-2.58V27.93a2.59,2.59,0,0,1,2.59-2.59H90.82a2.59,2.59,0,0,1,2.59,2.59V77.26A2.59,2.59,0,0,1,90.82,79.84Zm-33.66-54a2.1,2.1,0,0,0-2.09,2.09V77.26a2.09,2.09,0,0,0,2.09,2.08H90.82a2.09,2.09,0,0,0,2.09-2.08V27.93a2.1,2.1,0,0,0-2.09-2.09Z"/><rect class="cls-2" x="50.37" y="29.6" width="38.33" height="54" rx="2.33" transform="translate(139.08 113.19) rotate(180)"/><path class="cls-1" d="M78.84,55.7a9.56,9.56,0,0,0,.23-2.09,9.33,9.33,0,0,0-.25-2.2l-1.35,0-.8-1.91,1-.92a9.52,9.52,0,0,0-3-3l-1,1-1.9-.81.06-1.4a9.62,9.62,0,0,0-4.22-.05v1.52l-1.9.82-1.1-1.13a9.5,9.5,0,0,0-3,3l1.07,1-.81,1.92H60.27A9.48,9.48,0,0,0,60,53.61a9.72,9.72,0,0,0,.23,2.1h1.55l.81,1.92L61.48,58.7a9.63,9.63,0,0,0,3,3l1.17-1.2,1.9.82v1.63a9.41,9.41,0,0,0,4.22,0l-.06-1.52,1.9-.81,1.12,1.06a9.41,9.41,0,0,0,3-3l-1-1,.8-1.92Zm-9.3,2.54a4.63,4.63,0,1,1,4.63-4.63A4.63,4.63,0,0,1,69.54,58.24Z"/><path class="cls-3" d="M80.62,69.47a6.19,6.19,0,0,0,.48-1.15A6.45,6.45,0,0,0,81.32,67l-.76-.23-.14-1.22.7-.35A5.75,5.75,0,0,0,79.93,63l-.76.39-.94-.78.26-.78a5.35,5.35,0,0,0-1.2-.51,5.44,5.44,0,0,0-1.18-.22l-.25.86-1.21.15-.43-.82A5.54,5.54,0,0,0,72,62.49l.43.75-.77.95L70.82,64a5.94,5.94,0,0,0-.51,1.21,5.69,5.69,0,0,0-.22,1.22l.88.27.14,1.21-.81.42a5.74,5.74,0,0,0,1.19,2.18l.86-.49.94.78-.27.93a5.64,5.64,0,0,0,1.1.45,5.28,5.28,0,0,0,1.29.22l.22-.87,1.21-.14.46.79a5.81,5.81,0,0,0,2.18-1.22l-.41-.71.77-1Zm-5.69-.11a2.73,2.73,0,1,1,3.39-1.85A2.73,2.73,0,0,1,74.93,69.36Z"/><path class="cls-4" d="M0,2.57V49A2.4,2.4,0,0,0,2.19,51.6H71.81A2.4,2.4,0,0,0,74,49V2.57A2.4,2.4,0,0,0,71.81,0H2.19A2.4,2.4,0,0,0,0,2.57Z"/><path class="cls-1" d="M0,2.57V5.28H74V2.57A2.4,2.4,0,0,0,71.81,0H2.19A2.4,2.4,0,0,0,0,2.57Z"/><path class="cls-5" d="M60.59,2.64a1.26,1.26,0,1,0,1.26-1.25A1.25,1.25,0,0,0,60.59,2.64Z"/><path class="cls-6" d="M64.62,2.64a1.26,1.26,0,1,0,1.25-1.25A1.25,1.25,0,0,0,64.62,2.64Z"/><path class="cls-2" d="M68.64,2.64A1.26,1.26,0,1,0,69.9,1.39,1.26,1.26,0,0,0,68.64,2.64Z"/><rect class="cls-2" x="6.87" y="20.59" width="60.24" height="3.13" transform="translate(73.99 44.32) rotate(180)"/><rect class="cls-2" x="6.87" y="13.98" width="60.24" height="3.13" transform="translate(73.99 31.09) rotate(180)"/><rect class="cls-2" x="6.87" y="39.83" width="60.24" height="3.13" transform="translate(73.99 82.79) rotate(180)"/><rect class="cls-2" x="6.87" y="27.01" width="60.24" height="3.13" transform="translate(73.99 57.14) rotate(180)"/><rect class="cls-2" x="6.87" y="33.42" width="60.24" height="3.13" transform="translate(73.99 69.97) rotate(180)"/></svg>