<svg id="Camada_1" data-name="Camada 1" xmlns="http://www.w3.org/2000/svg" xmlns:xlink="http://www.w3.org/1999/xlink" viewBox="0 0 721.69 798.32"><defs><style>.cls-1{fill:#2c497f;}.cls-2{fill:url(#Gradiente_sem_nome_13);}.cls-3{fill:url(#Gradiente_sem_nome_48);}.cls-4{fill:url(#Gradiente_sem_nome_46);}.cls-5{fill:url(#Gradiente_sem_nome_46-2);}.cls-6{fill:url(#Gradiente_sem_nome_46-3);}.cls-7{fill:url(#Gradiente_sem_nome_46-4);}.cls-8{fill:url(#Gradiente_sem_nome_46-5);}.cls-9{fill:url(#Gradiente_sem_nome_46-6);}.cls-10{fill:url(#Gradiente_sem_nome_46-7);}</style><linearGradient id="Gradiente_sem_nome_13" x1="417.55" y1="290.31" x2="676.61" y2="31.25" gradientUnits="userSpaceOnUse"><stop offset="0" stop-color="#2c497f"/><stop offset="0.26" stop-color="#2a4679"/><stop offset="0.59" stop-color="#243c69"/><stop offset="0.97" stop-color="#1b2d4e"/><stop offset="1" stop-color="#1a2c4c"/></linearGradient><linearGradient id="Gradiente_sem_nome_48" x1="13.83" y1="320.99" x2="531.16" y2="320.99" gradientUnits="userSpaceOnUse"><stop offset="0" stop-color="#71bad1"/><stop offset="1" stop-color="#5195d1"/></linearGradient><linearGradient id="Gradiente_sem_nome_46" y1="608.09" x2="99.94" y2="608.09" gradientUnits="userSpaceOnUse"><stop offset="0" stop-color="#71bad1"/><stop offset="1" stop-color="#659fd1"/></linearGradient><linearGradient id="Gradiente_sem_nome_46-2" x1="100.95" y1="608.09" x2="209.85" y2="608.09" xlink:href="#Gradiente_sem_nome_46"/><linearGradient id="Gradiente_sem_nome_46-3" x1="205.62" y1="608.09" x2="333.12" y2="608.09" xlink:href="#Gradiente_sem_nome_46"/><linearGradient id="Gradiente_sem_nome_46-4" x1="322.46" y1="609.11" x2="408.19" y2="609.11" xlink:href="#Gradiente_sem_nome_46"/><linearGradient id="Gradiente_sem_nome_46-5" x1="414.78" y1="608.09" x2="510.83" y2="608.09" xlink:href="#Gradiente_sem_nome_46"/><linearGradient id="Gradiente_sem_nome_46-6" x1="509.81" y1="608.09" x2="623.28" y2="608.09" xlink:href="#Gradiente_sem_nome_46"/><linearGradient id="Gradiente_sem_nome_46-7" x1="617.86" y1="608.09" x2="721.69" y2="608.09" xlink:href="#Gradiente_sem_nome_46"/></defs><path class="cls-1" d="M702.39,261.62a215.36,215.36,0,0,0,0-96.46l-32.18-4.28a181.79,181.79,0,0,0-14.37-34.6l19.73-25.78a214.45,214.45,0,0,0-68.21-68.21L581.58,52A181.79,181.79,0,0,0,547,37.65L542.7,5.47a215.36,215.36,0,0,0-96.46,0L442,37.65A181.79,181.79,0,0,0,407.37,52L381.59,32.29a214.45,214.45,0,0,0-68.21,68.21l19.73,25.78a182.22,182.22,0,0,0-14.26,34.24h81.91a107.59,107.59,0,0,1,169.8-23.22h0a107.6,107.6,0,0,1-36.84,176.28L491.43,426.73c1,0,2,0,3,0a214.08,214.08,0,0,0,48.23-5.47L547,389.12a181.79,181.79,0,0,0,34.6-14.37l25.78,19.73a214.45,214.45,0,0,0,68.21-68.21l-19.73-25.78a181.79,181.79,0,0,0,14.37-34.6Z"/><path class="cls-2" d="M702.39,261.62a215.36,215.36,0,0,0,0-96.46l-32.18-4.28a181.79,181.79,0,0,0-14.37-34.6l19.73-25.78a214.45,214.45,0,0,0-68.21-68.21L581.58,52A181.79,181.79,0,0,0,547,37.65L542.7,5.47a215.36,215.36,0,0,0-96.46,0L442,37.65A181.79,181.79,0,0,0,407.37,52L381.59,32.29a214.45,214.45,0,0,0-68.21,68.21l19.73,25.78a182.22,182.22,0,0,0-14.26,34.24h81.91a107.59,107.59,0,0,1,169.8-23.22h0a107.6,107.6,0,0,1-36.84,176.28L491.43,426.73c1,0,2,0,3,0a214.08,214.08,0,0,0,48.23-5.47L547,389.12a181.79,181.79,0,0,0,34.6-14.37l25.78,19.73a214.45,214.45,0,0,0,68.21-68.21l-19.73-25.78a181.79,181.79,0,0,0,14.37-34.6Z"/><path class="cls-3" d="M525.16,266.54a33.63,33.63,0,0,0-27.64-14.46H457.61V213.61a44.12,44.12,0,0,0-44.07-44.06h-160a13.3,13.3,0,0,1-4.06-.63l-81.78-26a43.87,43.87,0,0,0-13.36-2.08H57.9a44.12,44.12,0,0,0-44.07,44.07V457.1a43.92,43.92,0,0,0,13.33,31.54l.56.63.86.7A43.89,43.89,0,0,0,57.9,501.16h395L529,297.48A33.63,33.63,0,0,0,525.16,266.54ZM37.29,184.89a20.63,20.63,0,0,1,20.61-20.6h96.42a20.45,20.45,0,0,1,6.25,1l81.78,26A36.81,36.81,0,0,0,253.52,193h160a20.63,20.63,0,0,1,20.61,20.6v38.47H123.48A33.76,33.76,0,0,0,92,273.94L37.29,420.26ZM507.05,289.27,436.63,477.7H57.9a20.53,20.53,0,0,1-14.71-6.19L114,282.15a10.23,10.23,0,0,1,9.53-6.61h374a10.17,10.17,0,0,1,9.53,13.73Z"/><path class="cls-4" d="M0,548.91H50.73c29.93,0,49.21,15.39,49.21,41.6v.34c0,27.9-21.48,42.61-50.9,42.61H32.81v33.82H0Zm48.36,58.84c11.67,0,18.77-6.08,18.77-15.38V592c0-10.15-7.1-15.56-18.94-15.56H32.81v31.28Z"/><path class="cls-5" d="M101,548.91h56c18.09,0,30.61,4.73,38.55,12.85,6.94,6.76,10.49,15.9,10.49,27.56v.34c0,18.09-9.64,30.1-24.35,36.36l28.24,41.26H172l-23.84-35.85H133.75v35.85H101Zm54.45,56.82c11.16,0,17.58-5.41,17.58-14v-.34c0-9.3-6.76-14-17.75-14H133.75v28.41Z"/><path class="cls-6" d="M205.62,608.43v-.34c0-34,27.39-61.55,63.92-61.55s63.58,27.23,63.58,61.21v.34c0,34-27.4,61.56-63.92,61.56S205.62,642.42,205.62,608.43Zm94,0v-.34c0-17.08-12.34-32-30.43-32-17.93,0-29.93,14.55-29.93,31.62v.34c0,17.08,12.34,32,30.27,32C287.63,640.05,299.63,625.51,299.63,608.43Z"/><path class="cls-7" d="M322.46,649.35l21.14-20c5.74,6.93,11.16,11,18.43,11,8.28,0,13.53-5.58,13.53-16.57V548.91h32.63V624c0,14.88-3.72,25.36-11.67,33.31-7.78,7.78-18.93,12-32.46,12C343.43,669.31,330.75,660.68,322.46,649.35Z"/><path class="cls-8" d="M414.78,548.91H510v27.9H447.25v17.92h56.82v25.88H447.25v18.77h63.58v27.9H414.78Z"/><path class="cls-9" d="M509.81,608.43v-.34c0-34.49,26.55-61.55,62.4-61.55,24.18,0,39.74,10.15,50.23,24.69l-24.69,19.11c-6.77-8.46-14.55-13.87-25.88-13.87-16.57,0-28.23,14-28.23,31.28v.34c0,17.76,11.66,31.63,28.23,31.63,12.35,0,19.62-5.75,26.72-14.38l24.69,17.59c-11.16,15.39-26.21,26.72-52.42,26.72C537,669.65,509.81,643.77,509.81,608.43Z"/><path class="cls-10" d="M653.38,577.66H617.86V548.91H721.69v28.75H686.18v89.62h-32.8Z"/><path class="cls-1" d="M.51,707H128.36v91.32H110.1V725.26H73.57v73.06H55.3V725.26H18.77v73.06H.51Z"/><path class="cls-1" d="M135.52,707h91.33v91.32H208.58V761.79H153.79v36.53H135.52Zm73.06,36.53V725.26H153.79v18.27Z"/><path class="cls-1" d="M234,707h91.32v91.32H307.07V725.26h-54.8v73.06H234Z"/><path class="cls-1" d="M332.49,707h91.33v91.32H405.55V761.79H350.76v36.53H332.49Zm73.06,36.53V725.26H350.76v18.27Z"/><path class="cls-1" d="M449.25,780.06H504V761.79H467.51V743.53h54.8v54.79H431V707h91.33v18.26H449.25Z"/><path class="cls-1" d="M620.79,725.26H547.73v18.27h54.8v18.26h-54.8v18.27h73.06v18.26H529.46V707h91.33Z"/><path class="cls-1" d="M719.28,798.32H701V761.79H646.22v36.53H628V707h91.33v36.53H701v18.26h18.27Zm-19-54.79V725.26H646.22v18.27Z"/><rect class="cls-1" x="0.36" y="683.45" width="719.84" height="6.96"/></svg>