<?xml version="1.0" encoding="utf-8"?>
<!-- Generator: Adobe Illustrator 26.0.3, SVG Export Plug-In . SVG Version: 6.00 Build 0)  -->
<svg version="1.1" id="Camada_1" xmlns="http://www.w3.org/2000/svg" xmlns:xlink="http://www.w3.org/1999/xlink" x="0px" y="0px"
	 viewBox="0 0 1510.7 501.2" style="enable-background:new 0 0 1510.7 501.2;" xml:space="preserve">
<style type="text/css">
	.st0{fill:#2C497F;}
	.st1{fill:#8F58E9;}
	.st2{fill:#FFFFFF;}
</style>
<path class="st0" d="M688.5,261.6c7.3-31.7,7.3-64.7,0-96.5l-32.2-4.3c-3.6-12-8.4-23.6-14.4-34.6l19.7-25.8
	c-17.3-27.6-40.6-50.9-68.2-68.2L567.8,52c-11-6-22.6-10.8-34.6-14.4l-4.3-32.2c-31.7-7.3-64.7-7.3-96.5,0l-4.3,32.2
	c-12,3.6-23.6,8.4-34.6,14.3l-25.8-19.7c-27.6,17.3-51,40.6-68.2,68.2l19.7,25.8c-5.9,10.9-10.7,22.4-14.3,34.2h81.9
	c29.2-51.8,94.8-70.1,146.6-40.9c8.5,4.8,16.3,10.7,23.2,17.6l0,0c42,42,42,110.1,0,152.2c-10.5,10.5-23,18.7-36.9,24.1l-42.3,113.1
	c1,0,2,0,3,0c16.2,0,32.4-1.8,48.2-5.5l4.3-32.2c12-3.6,23.6-8.4,34.6-14.4l25.8,19.7c27.6-17.3,50.9-40.6,68.2-68.2L642,300.5
	c6-11,10.8-22.6,14.4-34.6L688.5,261.6z"/>
<path class="st1" d="M688.5,261.6c7.3-31.7,7.3-64.7,0-96.5l-32.2-4.3c-3.6-12-8.4-23.6-14.4-34.6l19.7-25.8
	c-17.3-27.6-40.6-50.9-68.2-68.2L567.8,52c-11-6-22.6-10.8-34.6-14.4l-4.3-32.2c-31.7-7.3-64.7-7.3-96.5,0l-4.3,32.2
	c-12,3.6-23.6,8.4-34.6,14.3l-25.8-19.7c-27.6,17.3-51,40.6-68.2,68.2l19.7,25.8c-5.9,10.9-10.7,22.4-14.3,34.2h81.9
	c29.2-51.8,94.8-70.1,146.6-40.9c8.5,4.8,16.3,10.7,23.2,17.6l0,0c42,42,42,110.1,0,152.2c-10.5,10.5-23,18.7-36.9,24.1l-42.3,113.1
	c1,0,2,0,3,0c16.2,0,32.4-1.8,48.2-5.5l4.3-32.2c12-3.6,23.6-8.4,34.6-14.4l25.8,19.7c27.6-17.3,50.9-40.6,68.2-68.2L642,300.5
	c6-11,10.8-22.6,14.4-34.6L688.5,261.6z"/>
<path class="st2" d="M511.3,266.5c-6.3-9.1-16.6-14.5-27.6-14.5h-39.9v-38.5c0-24.3-19.7-44-44.1-44.1h-160c-1.4,0-2.7-0.2-4.1-0.6
	l-81.8-26c-4.3-1.4-8.8-2.1-13.4-2.1H44.1c-24.3,0-44,19.7-44.1,44.1v272.2c0,11.9,4.8,23.3,13.3,31.5l0.6,0.6l0.9,0.7
	c8.1,7.2,18.5,11.2,29.3,11.2h395l76.1-203.7C519.1,287.2,517.6,275.6,511.3,266.5z M23.5,184.9c0-11.4,9.2-20.6,20.6-20.6h96.4
	c2.1,0,4.2,0.3,6.2,1l81.8,26c3.6,1.1,7.4,1.7,11.2,1.7h160c11.4,0,20.6,9.2,20.6,20.6v38.5H109.7c-14,0-26.6,8.7-31.5,21.9
	L23.5,420.3V184.9z M493.2,289.3l-70.4,188.4H44.1c-5.5,0-10.8-2.2-14.7-6.2l70.8-189.4c1.5-4,5.3-6.6,9.5-6.6h374
	c5.6,0,10.2,4.5,10.2,10.2C493.8,286.9,493.6,288.1,493.2,289.3L493.2,289.3z"/>
<path class="st1" d="M789,127.1h50.7c29.9,0,49.2,15.4,49.2,41.6v0.3c0,27.9-21.5,42.6-50.9,42.6h-16.2v33.8H789V127.1z
	 M837.4,185.9c11.7,0,18.8-6.1,18.8-15.4v-0.3c0-10.1-7.1-15.6-18.9-15.6h-15.4v31.3H837.4z"/>
<path class="st1" d="M890,127.1h56c18.1,0,30.6,4.7,38.6,12.9c6.9,6.8,10.5,15.9,10.5,27.6v0.3c0,18.1-9.6,30.1-24.3,36.4l28.2,41.3
	H961l-23.8-35.9h-14.4v35.9H890V127.1z M944.5,183.9c11.2,0,17.6-5.4,17.6-14v-0.3c0-9.3-6.8-14-17.8-14h-21.5V184L944.5,183.9z"/>
<path class="st1" d="M994.6,186.6v-0.3c0-34,27.4-61.6,63.9-61.6s63.6,27.2,63.6,61.2v0.3c0,34-27.4,61.6-63.9,61.6
	S994.6,220.6,994.6,186.6z M1088.6,186.6v-0.3c0-17.1-12.3-32-30.4-32c-17.9,0-29.9,14.6-29.9,31.6v0.3c0,17.1,12.3,32,30.3,32
	C1076.7,218.2,1088.7,203.7,1088.6,186.6L1088.6,186.6z"/>
<path class="st1" d="M1111.5,227.5l21.1-19.9c5.8,6.9,11.2,11,18.4,11c8.3,0,13.5-5.6,13.5-16.6v-74.9h32.6v75.1
	c0,14.9-3.7,25.4-11.7,33.3c-7.8,7.8-18.9,12-32.5,12C1132.4,247.5,1119.8,238.8,1111.5,227.5z"/>
<path class="st1" d="M1203.8,127.1h95.2V155h-62.7v17.9h56.8v25.9h-56.8v18.8h63.6v27.9h-96L1203.8,127.1z"/>
<path class="st1" d="M1298.8,186.6v-0.3c0-34.5,26.6-61.6,62.4-61.6c24.2,0,39.7,10.1,50.2,24.7l-24.7,19.1
	c-6.8-8.5-14.5-13.9-25.9-13.9c-16.6,0-28.2,14-28.2,31.3v0.3c0,17.8,11.7,31.6,28.2,31.6c12.3,0,19.6-5.8,26.7-14.4l24.7,17.6
	c-11.2,15.4-26.2,26.7-52.4,26.7C1326.1,247.8,1298.8,221.9,1298.8,186.6z"/>
<path class="st1" d="M1442.4,155.8h-35.5v-28.8h103.8v28.8h-35.5v89.6h-32.8V155.8z"/>
<path class="st2" d="M789.5,285.1h127.9v91.3h-18.3v-73.1h-36.5v73.1h-18.3v-73.1h-36.5v73.1h-18.3V285.1z"/>
<path class="st2" d="M924.5,285.1h91.3v91.3h-18.3v-36.5h-54.8v36.5h-18.3V285.1z M997.6,321.7v-18.3h-54.8v18.3L997.6,321.7z"/>
<path class="st2" d="M1023,285.1h91.3v91.3h-18.3v-73.1h-54.8v73.1H1023V285.1z"/>
<path class="st2" d="M1121.5,285.1h91.3v91.3h-18.3v-36.5h-54.8v36.5h-18.3L1121.5,285.1z M1194.6,321.7v-18.3h-54.8v18.3
	L1194.6,321.7z"/>
<path class="st2" d="M1238.3,358.2h54.8v-18.3h-36.5v-18.3h54.8v54.8H1220v-91.3h91.3v18.3h-73.1V358.2z"/>
<path class="st2" d="M1409.8,303.4h-73.1v18.3h54.8v18.3h-54.8v18.3h73.1v18.3h-91.3v-91.3h91.3L1409.8,303.4z"/>
<path class="st2" d="M1508.3,376.5H1490v-36.5h-54.8v36.5H1417v-91.3h91.3v36.5H1490v18.3h18.3L1508.3,376.5z M1489.3,321.7v-18.3
	h-54.1v18.3H1489.3z"/>
<rect x="789.4" y="261.6" class="st2" width="719.8" height="7"/>
</svg>
