<?xml version="1.0" encoding="utf-8"?>
<!-- Generator: Adobe Illustrator 26.0.3, SVG Export Plug-In . SVG Version: 6.00 Build 0)  -->
<svg version="1.1" id="Camada_1" xmlns="http://www.w3.org/2000/svg" xmlns:xlink="http://www.w3.org/1999/xlink" x="0px" y="0px"
	 viewBox="0 0 799.8 577.5" style="enable-background:new 0 0 799.8 577.5;" xml:space="preserve">
<style type="text/css">
	.st0{fill:#2C497F;}
	.st1{fill:#8F58E9;}
	.st2{fill:#FFFFFF;}
</style>
<path class="st0" d="M793,301.5c8.4-36.5,8.4-74.5,0-111l-37-4.9c-4.2-13.8-9.7-27.2-16.6-39.9l22.7-29.7
	c-19.9-31.8-46.7-58.7-78.5-78.5L654,60.2c-12.7-6.9-26-12.4-39.8-16.5l-4.9-37c-36.5-8.4-74.5-8.4-111,0l-4.9,37
	c-13.8,4.1-27.2,9.7-39.9,16.5l-29.7-22.7C392,57.4,365.2,84.2,345.3,116l22.7,29.7c-6.8,12.5-12.3,25.8-16.4,39.4h94.3
	c33.6-59.6,109.1-80.6,168.7-47c9.8,5.5,18.8,12.4,26.7,20.3l0,0c48.4,48.4,48.4,126.8,0,175.2c-12.1,12.1-26.5,21.5-42.4,27.8
	l-48.7,130.2c1.2,0,2.3,0,3.5,0c18.7,0,37.3-2,55.5-6.2l4.9-37c13.8-4.1,27.2-9.7,39.8-16.5l29.7,22.7
	c31.8-19.9,58.6-46.7,78.5-78.5l-22.7-29.9c6.9-12.7,12.4-26,16.5-39.8L793,301.5z"/>
<path class="st1" d="M793,301.5c8.4-36.5,8.4-74.5,0-111l-37-4.9c-4.2-13.8-9.7-27.2-16.6-39.9l22.7-29.7
	c-19.9-31.8-46.7-58.7-78.5-78.5L654,60.2c-12.7-6.9-26-12.4-39.8-16.5l-4.9-37c-36.5-8.4-74.5-8.4-111,0l-4.9,37
	c-13.8,4.1-27.2,9.7-39.9,16.5l-29.7-22.7C392,57.4,365.2,84.2,345.3,116l22.7,29.7c-6.8,12.5-12.3,25.8-16.4,39.4h94.3
	c33.6-59.6,109.1-80.6,168.7-47c9.8,5.5,18.8,12.4,26.7,20.3l0,0c48.4,48.4,48.4,126.8,0,175.2c-12.1,12.1-26.5,21.5-42.4,27.8
	l-48.7,130.2c1.2,0,2.3,0,3.5,0c18.7,0,37.3-2,55.5-6.2l4.9-37c13.8-4.1,27.2-9.7,39.8-16.5l29.7,22.7
	c31.8-19.9,58.6-46.7,78.5-78.5l-22.7-29.9c6.9-12.7,12.4-26,16.5-39.8L793,301.5z"/>
<path class="st2" d="M589,307.1c-7.2-10.4-19.1-16.6-31.8-16.6h-45.9v-44.3c0-28-22.7-50.7-50.7-50.7H276.3c-1.6,0-3.2-0.2-4.7-0.7
	l-94.1-30c-5-1.6-10.2-2.4-15.4-2.4h-111c-28,0-50.7,22.7-50.7,50.8v313.3c0,13.7,5.5,26.8,15.3,36.3l0.6,0.7l1,0.8
	c9.3,8.3,21.3,12.9,33.7,12.9h454.7l87.6-234.5C597.9,330.9,596.2,317.5,589,307.1z M27.4,213.1c0-13.1,10.6-23.7,23.7-23.7h111
	c2.4,0,4.9,0.4,7.2,1.1l94.1,30c4.2,1.3,8.5,2,12.9,2h184.2c13.1,0,23.7,10.6,23.7,23.7v44.3H126.6c-16.1,0.1-30.5,10.1-36.2,25.1
	l-63,168.5V213.1z M568.2,333.3l-81.1,216.9h-436c-6.4,0-12.5-2.6-16.9-7.1l81.5-218c1.7-4.6,6.1-7.6,11-7.6h430.6
	c6.5,0,11.7,5.2,11.7,11.7C568.9,330.6,568.7,332,568.2,333.3L568.2,333.3z"/>
</svg>
