<svg id="Camada_1" data-name="Camada 1" xmlns="http://www.w3.org/2000/svg" xmlns:xlink="http://www.w3.org/1999/xlink" viewBox="0 0 721.69 797.98"><defs><style>.cls-1{fill:#2c497f;}.cls-2{fill:url(#Gradiente_sem_nome_74);}.cls-3{fill:url(#Gradiente_sem_nome_48);}.cls-4{fill:url(#Gradiente_sem_nome_46);}.cls-5{fill:url(#Gradiente_sem_nome_46-2);}.cls-6{fill:url(#Gradiente_sem_nome_46-3);}.cls-7{fill:url(#Gradiente_sem_nome_46-4);}.cls-8{fill:url(#Gradiente_sem_nome_46-5);}.cls-9{fill:url(#Gradiente_sem_nome_46-6);}.cls-10{fill:url(#Gradiente_sem_nome_46-7);}.cls-11{fill:#fff;}</style><linearGradient id="Gradiente_sem_nome_74" x1="416.98" y1="290.31" x2="676.05" y2="31.25" gradientUnits="userSpaceOnUse"><stop offset="0" stop-color="#fff"/><stop offset="0.12" stop-color="#f9fcfd"/><stop offset="0.28" stop-color="#e9f2f9"/><stop offset="0.46" stop-color="#cee2f2"/><stop offset="0.65" stop-color="#a8cbe8"/><stop offset="0.86" stop-color="#79afdb"/><stop offset="1" stop-color="#5398d1"/></linearGradient><linearGradient id="Gradiente_sem_nome_48" x1="13.27" y1="320.99" x2="530.59" y2="320.99" gradientUnits="userSpaceOnUse"><stop offset="0" stop-color="#71bad1"/><stop offset="1" stop-color="#5195d1"/></linearGradient><linearGradient id="Gradiente_sem_nome_46" y1="607.76" x2="99.94" y2="607.76" gradientUnits="userSpaceOnUse"><stop offset="0" stop-color="#71bad1"/><stop offset="1" stop-color="#659fd1"/></linearGradient><linearGradient id="Gradiente_sem_nome_46-2" x1="100.95" y1="607.76" x2="209.85" y2="607.76" xlink:href="#Gradiente_sem_nome_46"/><linearGradient id="Gradiente_sem_nome_46-3" x1="205.62" y1="607.75" x2="333.12" y2="607.75" xlink:href="#Gradiente_sem_nome_46"/><linearGradient id="Gradiente_sem_nome_46-4" x1="322.46" y1="608.77" x2="408.19" y2="608.77" xlink:href="#Gradiente_sem_nome_46"/><linearGradient id="Gradiente_sem_nome_46-5" x1="414.78" y1="607.76" x2="510.83" y2="607.76" xlink:href="#Gradiente_sem_nome_46"/><linearGradient id="Gradiente_sem_nome_46-6" x1="509.81" y1="607.75" x2="623.28" y2="607.75" xlink:href="#Gradiente_sem_nome_46"/><linearGradient id="Gradiente_sem_nome_46-7" x1="617.86" y1="607.76" x2="721.69" y2="607.76" xlink:href="#Gradiente_sem_nome_46"/></defs><path class="cls-1" d="M701.82,261.62a215,215,0,0,0,0-96.46l-32.17-4.28a182.44,182.44,0,0,0-14.37-34.6L675,100.5a214.38,214.38,0,0,0-68.22-68.21L581,52a181.89,181.89,0,0,0-34.61-14.37L542.14,5.47a215.36,215.36,0,0,0-96.46,0l-4.27,32.18A181.89,181.89,0,0,0,406.8,52L381,32.29a214.48,214.48,0,0,0-68.22,68.21l19.73,25.78a182.22,182.22,0,0,0-14.26,34.24H400.2A107.59,107.59,0,0,1,570,137.3h0a107.6,107.6,0,0,1-36.84,176.28L490.87,426.73c1,0,2,0,3,0a214.08,214.08,0,0,0,48.23-5.47l4.27-32.18A181.89,181.89,0,0,0,581,374.75l25.77,19.73A214.38,214.38,0,0,0,675,326.27l-19.73-25.78a182.44,182.44,0,0,0,14.37-34.6Z"/><path class="cls-2" d="M701.82,261.62a215,215,0,0,0,0-96.46l-32.17-4.28a182.44,182.44,0,0,0-14.37-34.6L675,100.5a214.38,214.38,0,0,0-68.22-68.21L581,52a181.89,181.89,0,0,0-34.61-14.37L542.14,5.47a215.36,215.36,0,0,0-96.46,0l-4.27,32.18A181.89,181.89,0,0,0,406.8,52L381,32.29a214.48,214.48,0,0,0-68.22,68.21l19.73,25.78a182.22,182.22,0,0,0-14.26,34.24H400.2A107.59,107.59,0,0,1,570,137.3h0a107.6,107.6,0,0,1-36.84,176.28L490.87,426.73c1,0,2,0,3,0a214.08,214.08,0,0,0,48.23-5.47l4.27-32.18A181.89,181.89,0,0,0,581,374.75l25.77,19.73A214.38,214.38,0,0,0,675,326.27l-19.73-25.78a182.44,182.44,0,0,0,14.37-34.6Z"/><path class="cls-3" d="M524.59,266.54A33.62,33.62,0,0,0,497,252.08H457.05V213.61A44.12,44.12,0,0,0,413,169.55H253a13.23,13.23,0,0,1-4-.63l-81.78-26a43.92,43.92,0,0,0-13.36-2.08H57.33a44.12,44.12,0,0,0-44.06,44.07V457.1a44,44,0,0,0,13.32,31.54l.56.63.87.7a43.89,43.89,0,0,0,29.31,11.19h395l76.12-203.68A33.66,33.66,0,0,0,524.59,266.54ZM36.73,184.89a20.62,20.62,0,0,1,20.6-20.6h96.43a20.34,20.34,0,0,1,6.24,1l81.78,26A36.85,36.85,0,0,0,253,193H413a20.62,20.62,0,0,1,20.6,20.6v38.47H122.92a33.78,33.78,0,0,0-31.51,21.86L36.73,420.26ZM506.49,289.27,436.07,477.7H57.33a20.52,20.52,0,0,1-14.7-6.19l70.76-189.36a10.23,10.23,0,0,1,9.53-6.61H497a10.17,10.17,0,0,1,9.53,13.73Z"/><path class="cls-4" d="M0,548.57H50.73c29.93,0,49.21,15.39,49.21,41.6v.34c0,27.9-21.48,42.61-50.9,42.61H32.81v33.82H0Zm48.36,58.85c11.67,0,18.77-6.09,18.77-15.39v-.34c0-10.14-7.1-15.56-18.94-15.56H32.81v31.29Z"/><path class="cls-5" d="M101,548.57h56c18.09,0,30.61,4.74,38.55,12.85C202.41,568.19,206,577.32,206,589v.33c0,18.1-9.64,30.1-24.35,36.36l28.24,41.26H172l-23.84-35.85H133.75v35.85H101Zm54.45,56.82c11.16,0,17.58-5.41,17.58-14V591c0-9.3-6.76-14-17.75-14H133.75v28.41Z"/><path class="cls-6" d="M205.62,608.09v-.34c0-34,27.39-61.55,63.92-61.55s63.58,27.23,63.58,61.22v.33c0,34-27.4,61.56-63.92,61.56S205.62,642.08,205.62,608.09Zm94,0v-.34c0-17.07-12.34-32-30.43-32-17.93,0-29.93,14.54-29.93,31.62v.33c0,17.08,12.34,32,30.27,32C287.63,639.72,299.63,625.17,299.63,608.09Z"/><path class="cls-7" d="M322.46,649l21.14-20c5.74,6.94,11.16,11,18.43,11,8.28,0,13.53-5.58,13.53-16.57V548.57h32.63v75.08c0,14.88-3.72,25.37-11.67,33.31-7.78,7.78-18.93,12-32.46,12C343.43,669,330.75,660.35,322.46,649Z"/><path class="cls-8" d="M414.78,548.57H510v27.9H447.25V594.4h56.82v25.87H447.25V639h63.58v27.9H414.78Z"/><path class="cls-9" d="M509.81,608.09v-.34c0-34.49,26.55-61.55,62.4-61.55,24.18,0,39.74,10.15,50.23,24.69L597.75,590c-6.77-8.45-14.55-13.87-25.88-13.87-16.57,0-28.23,14-28.23,31.29v.33c0,17.76,11.66,31.63,28.23,31.63,12.35,0,19.62-5.75,26.72-14.38l24.69,17.59c-11.16,15.39-26.21,26.72-52.42,26.72C537,669.31,509.81,643.44,509.81,608.09Z"/><path class="cls-10" d="M653.38,577.32H617.86V548.57H721.69v28.75H686.18v89.62h-32.8Z"/><path class="cls-11" d="M.51,706.66H128.36V798H110.1V724.92H73.57V798H55.3V724.92H18.77V798H.51Z"/><path class="cls-11" d="M135.52,706.66h91.33V798H208.58V761.45H153.79V798H135.52Zm73.06,36.53V724.92H153.79v18.27Z"/><path class="cls-11" d="M234,706.66h91.32V798H307.07V724.92h-54.8V798H234Z"/><path class="cls-11" d="M332.49,706.66h91.33V798H405.55V761.45H350.76V798H332.49Zm73.06,36.53V724.92H350.76v18.27Z"/><path class="cls-11" d="M449.25,779.72H504V761.45H467.51V743.19h54.8V798H431V706.66h91.33v18.26H449.25Z"/><path class="cls-11" d="M620.79,724.92H547.73v18.27h54.8v18.26h-54.8v18.27h73.06V798H529.46V706.66h91.33Z"/><path class="cls-11" d="M719.28,798H701V761.45H646.22V798H628V706.66h91.33v36.53H701v18.26h18.27Zm-19-54.79V724.92H646.22v18.27Z"/><rect class="cls-11" x="0.36" y="683.11" width="719.84" height="6.96"/></svg>