<?xml version="1.0" encoding="utf-8"?>
<!-- Generator: Adobe Illustrator 26.0.3, SVG Export Plug-In . SVG Version: 6.00 Build 0)  -->
<svg version="1.1" id="Camada_1" xmlns="http://www.w3.org/2000/svg" xmlns:xlink="http://www.w3.org/1999/xlink" x="0px" y="0px"
	 viewBox="0 0 2369.9 826.8" style="enable-background:new 0 0 2369.9 826.8;" xml:space="preserve">
<style type="text/css">
	.st0{fill:#8F58E9;}
	.st1{fill:#FFFFFF;}
</style>
<path class="st0" d="M0,7.8h166.6c98.3,0,161.6,50.5,161.6,136.6v1.1c0,91.6-70.5,139.9-167.1,139.9h-53.3v111.1H0V7.8z M158.8,201
	c38.3,0,61.6-20,61.6-50.5v-1.1c0-33.3-23.3-51.1-62.2-51.1h-50.5V201H158.8z"/>
<path class="st0" d="M331.5,7.8h183.8c59.4,0,100.5,15.5,126.6,42.2c22.8,22.2,34.4,52.2,34.4,90.5v1.1c0,59.4-31.7,98.9-80,119.4
	l92.7,135.5H564.7l-78.3-117.7h-47.2v117.7H331.5V7.8z M510.3,194.4c36.7,0,57.8-17.8,57.8-46.1v-1.1c0-30.5-22.2-46.1-58.3-46.1
	h-70.5v93.3L510.3,194.4z"/>
<path class="st0" d="M675.2,203.2v-1.1C675.2,90.5,765.2,0,885.1,0s208.8,89.4,208.8,201v1.1c0,111.6-90,202.1-209.9,202.1
	S675.2,314.9,675.2,203.2z M984,203.2v-1.1c0-56.1-40.5-105-100-105c-58.9,0-98.3,47.7-98.3,103.8v1.1c0,56.1,40.5,105,99.4,105
	C944.5,307.1,984,259.3,984,203.2L984,203.2z"/>
<path class="st0" d="M1058.9,337.6l69.4-65.5c18.9,22.8,36.7,36.1,60.5,36.1c27.2,0,44.4-18.3,44.4-54.4V7.8h107.2v246.6
	c0,48.9-12.2,83.3-38.3,109.4c-25.6,25.5-62.2,39.4-106.6,39.4C1127.8,403.1,1086.1,374.8,1058.9,337.6z"/>
<path class="st0" d="M1362.1,7.8h312.6v91.6h-206v58.9h186.6v85h-186.6v61.6h208.8v91.6h-315.4V7.8z"/>
<path class="st0" d="M1674.2,203.2v-1.1C1674.2,88.8,1761.3,0,1879.1,0c79.4,0,130.5,33.3,164.9,81.1l-81.1,62.7
	c-22.2-27.8-47.8-45.5-85-45.5c-54.4,0-92.7,46.1-92.7,102.7v1.1c0,58.3,38.3,103.8,92.7,103.8c40.5,0,64.4-18.9,87.7-47.2
	l81.1,57.8c-36.7,50.5-86.1,87.7-172.2,87.7C1763.6,404.3,1674.2,319.3,1674.2,203.2z"/>
<path class="st0" d="M2145.6,102.2H2029V7.8h340.9v94.4h-116.6v294.3h-107.7V102.2z"/>
<path class="st1" d="M1.7,526.9h419.9v299.9h-60V586.9h-120v239.9h-60V586.9h-120v239.9h-60L1.7,526.9z"/>
<path class="st1" d="M445,526.9h299.9v299.9H685v-120H505v120h-60V526.9z M685,646.9v-60H505v60H685z"/>
<path class="st1" d="M768.5,526.9h299.9v299.9h-60V586.9H828.4v239.9h-60L768.5,526.9z"/>
<path class="st1" d="M1091.9,526.9h299.9v299.9h-60v-120h-179.9v120h-60L1091.9,526.9z M1331.8,646.9v-60h-179.9v60H1331.8z"/>
<path class="st1" d="M1475.3,766.8h179.9v-60h-120v-60h179.9v180h-299.9V526.9h299.9v60h-239.9V766.8z"/>
<path class="st1" d="M2038.6,586.9h-239.9v60h179.9v60h-179.9v60h239.9v60h-299.9v-300h299.9L2038.6,586.9z"/>
<path class="st1" d="M2362,826.8h-60v-120h-179.9v120h-60V526.9H2362v120h-60v60h60V826.8z M2299.6,646.9v-60h-177.5v60H2299.6z"/>
<rect x="1.2" y="449.6" class="st1" width="2363.9" height="22.8"/>
</svg>
